<svg xmlns="http://www.w3.org/2000/svg" xmlns:xlink="http://www.w3.org/1999/xlink"  viewBox="0 0 131.999 123.599">
  <defs>
    <linearGradient id="linear-gradient" x1="0.016" y1="0.016" x2="0.98" y2="0.976" gradientUnits="objectBoundingBox">
      <stop offset="0" stop-color="#d4e74f"/>
      <stop offset="1" stop-color="#79ae00"/>
    </linearGradient>
    <filter id="Path_2" x="0" y="0"  filterUnits="userSpaceOnUse">
      <feOffset input="SourceAlpha"/>
      <feGaussianBlur stdDeviation="15" result="blur"/>
      <feFlood flood-color="#a8a8a8" flood-opacity="0.302"/>
      <feComposite operator="in" in2="blur"/>
      <feComposite in="SourceGraphic"/>
    </filter>
  </defs>
  <g id="Group_1" data-name="Group 1" transform="translate(45 45)">
    <g transform="matrix(1, 0, 0, 1, -45, -45)" filter="url(#Path_2)">
      <path id="Path_2-2" data-name="Path 2" d="M37.8,48.005v-4.2L33.6,37.5l-4.2,6.306v4.2H25.2v-4.2L21,37.5l-4.2,6.294v4.2H12.6v-4.2L8.4,37.5,4.2,43.806v4.2H0v4.2H4.2v8.4H0v4.2H4.2V71.1h8.4V64.794h4.2V71.1h8.4V64.794h4.2V71.1h8.4V64.794H42v-4.2H37.8v-8.4H42V48.005Zm-21,12.6H12.6v-8.4h4.2Zm12.6,0H25.2v-8.4h4.2Z" transform="translate(45 7.5)" fill="url(#linear-gradient)"/>
    </g>
  </g>
</svg>
